<svg width="201" height="39" viewBox="0 0 201 39" fill="none" xmlns="http://www.w3.org/2000/svg">
<path d="M12.7634 6.85037C14.3798 6.85037 15.8166 7.20957 17.0738 7.92796C18.3309 8.62069 19.3059 9.6598 19.9986 11.0453C20.717 12.4051 21.0762 14.0471 21.0762 15.9714V28.4791H15.6883V16.7026C15.6883 15.0092 15.2649 13.7136 14.4183 12.8156C13.5716 11.8919 12.417 11.4301 10.9546 11.4301C9.46651 11.4301 8.28629 11.8919 7.41396 12.8156C6.56728 13.7136 6.14395 15.0092 6.14395 16.7026V28.4791H0.756012V0H6.14395V9.81374C6.83668 8.89009 7.76033 8.1717 8.91488 7.65856C10.0694 7.11977 11.3523 6.85037 12.7634 6.85037Z" fill="black"/>
<path d="M44.0955 17.3568C44.0955 18.1266 44.0442 18.8193 43.9416 19.435H28.355C28.4833 20.9745 29.0221 22.1803 29.9714 23.0527C30.9207 23.925 32.0881 24.3612 33.4736 24.3612C35.4748 24.3612 36.8988 23.5017 37.7454 21.7826H43.5567C42.941 23.8352 41.7607 25.5285 40.0161 26.8627C38.2714 28.1712 36.1291 28.8254 33.589 28.8254C31.5365 28.8254 29.6892 28.3765 28.0472 27.4785C26.4308 26.5548 25.1608 25.2591 24.2371 23.5915C23.3391 21.9238 22.8901 19.9995 22.8901 17.8187C22.8901 15.6122 23.3391 13.6751 24.2371 12.0074C25.1351 10.3397 26.3923 9.05686 28.0087 8.15887C29.6251 7.26088 31.4852 6.81189 33.589 6.81189C35.6159 6.81189 37.4247 7.24805 39.0155 8.12039C40.6318 8.99272 41.8762 10.2371 42.7485 11.8535C43.6465 13.4442 44.0955 15.2786 44.0955 17.3568ZM38.5151 15.8174C38.4895 14.432 37.9892 13.3287 37.0142 12.5077C36.0393 11.661 34.8462 11.2377 33.4351 11.2377C32.1009 11.2377 30.972 11.6482 30.0484 12.4692C29.1504 13.2646 28.5988 14.3807 28.3935 15.8174H38.5151Z" fill="black"/>
<path d="M51.4919 0V28.4791H46.104V0H51.4919Z" fill="black"/>
<path d="M60.2789 0V28.4791H54.8909V0H60.2789Z" fill="black"/>
<path d="M73.1453 28.8254C71.0927 28.8254 69.2454 28.3765 67.6034 27.4785C65.9613 26.5548 64.6657 25.2591 63.7164 23.5915C62.7927 21.9238 62.3309 19.9995 62.3309 17.8187C62.3309 15.6378 62.8055 13.7136 63.7549 12.0459C64.7298 10.3782 66.0511 9.09535 67.7188 8.19736C69.3865 7.27371 71.2467 6.81189 73.2992 6.81189C75.3517 6.81189 77.2119 7.27371 78.8796 8.19736C80.5472 9.09535 81.8557 10.3782 82.805 12.0459C83.78 13.7136 84.2675 15.6378 84.2675 17.8187C84.2675 19.9995 83.7672 21.9238 82.7666 23.5915C81.7916 25.2591 80.4575 26.5548 78.7641 27.4785C77.0964 28.3765 75.2235 28.8254 73.1453 28.8254ZM73.1453 24.1302C74.1202 24.1302 75.031 23.8993 75.8777 23.4375C76.75 22.95 77.4428 22.2316 77.9559 21.2823C78.469 20.333 78.7256 19.1785 78.7256 17.8187C78.7256 15.7918 78.1868 14.2395 77.1092 13.162C76.0573 12.0587 74.7616 11.5071 73.2222 11.5071C71.6828 11.5071 70.3871 12.0587 69.3352 13.162C68.3089 14.2395 67.7958 15.7918 67.7958 17.8187C67.7958 19.8456 68.2961 21.4106 69.2967 22.5139C70.323 23.5915 71.6058 24.1302 73.1453 24.1302Z" fill="black"/>
<path d="M94.4544 28.8254C92.7097 28.8254 91.1446 28.5176 89.7592 27.9018C88.3737 27.2604 87.2704 26.4009 86.4494 25.3233C85.6541 24.2457 85.2179 23.0527 85.1409 21.7442H90.5673C90.67 22.5652 91.0676 23.2451 91.7604 23.7839C92.4788 24.3227 93.3639 24.5921 94.4159 24.5921C95.4421 24.5921 96.2375 24.3868 96.802 23.9763C97.3921 23.5658 97.6871 23.0398 97.6871 22.3984C97.6871 21.7057 97.3279 21.1925 96.6095 20.859C95.9168 20.4998 94.8007 20.115 93.2613 19.7044C91.6706 19.3196 90.3621 18.9219 89.3358 18.5114C88.3352 18.1009 87.4629 17.4723 86.7188 16.6256C86.0004 15.7789 85.6412 14.6372 85.6412 13.2004C85.6412 12.0202 85.9748 10.9426 86.6418 9.96768C87.3346 8.99272 88.3095 8.22301 89.5667 7.65856C90.8496 7.09411 92.3505 6.81189 94.0695 6.81189C96.6095 6.81189 98.6364 7.45331 100.15 8.73615C101.664 9.99333 102.498 11.6995 102.652 13.8547H97.4947C97.4177 13.008 97.0585 12.3409 96.4171 11.8535C95.8013 11.3403 94.9675 11.0837 93.9156 11.0837C92.9406 11.0837 92.1837 11.2633 91.6449 11.6225C91.1318 11.9817 90.8752 12.482 90.8752 13.1235C90.8752 13.8419 91.2344 14.3935 91.9528 14.7783C92.6712 15.1375 93.7873 15.5096 95.301 15.8944C96.8404 16.2793 98.1105 16.6769 99.1111 17.0874C100.112 17.498 100.971 18.1394 101.69 19.0117C102.434 19.8584 102.818 20.9873 102.844 22.3984C102.844 23.6299 102.498 24.7332 101.805 25.7081C101.138 26.6831 100.163 27.4528 98.8801 28.0173C97.623 28.5561 96.1477 28.8254 94.4544 28.8254Z" fill="black"/>
<path d="M134.899 7.15825L128.665 28.4791H122.853L118.966 13.5853L115.079 28.4791H109.23L102.957 7.15825H108.421L112.193 23.399L116.272 7.15825H121.968L125.971 23.3605L129.742 7.15825H134.899Z" fill="black"/>
<path d="M134.505 17.7417C134.505 15.5865 134.928 13.6751 135.775 12.0074C136.647 10.3397 137.815 9.05686 139.277 8.15887C140.765 7.26088 142.42 6.81189 144.242 6.81189C145.832 6.81189 147.218 7.1326 148.398 7.77402C149.604 8.41544 150.566 9.22363 151.284 10.1986V7.15825H156.711V28.4791H151.284V25.3618C150.592 26.3624 149.63 27.1962 148.398 27.8633C147.192 28.5047 145.794 28.8254 144.203 28.8254C142.407 28.8254 140.765 28.3636 139.277 27.44C137.815 26.5163 136.647 25.2207 135.775 23.553C134.928 21.8596 134.505 19.9225 134.505 17.7417ZM151.284 17.8187C151.284 16.5102 151.028 15.3941 150.515 14.4705C150.002 13.5211 149.309 12.8028 148.437 12.3153C147.564 11.8021 146.628 11.5456 145.627 11.5456C144.626 11.5456 143.703 11.7893 142.856 12.2768C142.009 12.7643 141.317 13.4827 140.778 14.432C140.265 15.3556 140.008 16.4589 140.008 17.7417C140.008 19.0245 140.265 20.1534 140.778 21.1284C141.317 22.0777 142.009 22.8089 142.856 23.3221C143.729 23.8352 144.652 24.0918 145.627 24.0918C146.628 24.0918 147.564 23.848 148.437 23.3605C149.309 22.8474 150.002 22.129 150.515 21.2054C151.028 20.2561 151.284 19.1272 151.284 17.8187Z" fill="black"/>
<path d="M165.437 10.2371C166.13 9.26211 167.079 8.45393 168.285 7.8125C169.516 7.14543 170.915 6.81189 172.48 6.81189C174.301 6.81189 175.943 7.26088 177.406 8.15887C178.894 9.05686 180.061 10.3397 180.908 12.0074C181.78 13.6494 182.216 15.5609 182.216 17.7417C182.216 19.9225 181.78 21.8596 180.908 23.553C180.061 25.2207 178.894 26.5163 177.406 27.44C175.943 28.3636 174.301 28.8254 172.48 28.8254C170.915 28.8254 169.529 28.5047 168.323 27.8633C167.143 27.2219 166.181 26.4137 165.437 25.4387V38.6392H160.049V7.15825H165.437V10.2371ZM176.713 17.7417C176.713 16.4589 176.444 15.3556 175.905 14.432C175.392 13.4827 174.699 12.7643 173.827 12.2768C172.98 11.7893 172.056 11.5456 171.056 11.5456C170.081 11.5456 169.157 11.8021 168.285 12.3153C167.438 12.8028 166.745 13.5211 166.206 14.4705C165.693 15.4198 165.437 16.5358 165.437 17.8187C165.437 19.1015 165.693 20.2176 166.206 21.1669C166.745 22.1162 167.438 22.8474 168.285 23.3605C169.157 23.848 170.081 24.0918 171.056 24.0918C172.056 24.0918 172.98 23.8352 173.827 23.3221C174.699 22.8089 175.392 22.0777 175.905 21.1284C176.444 20.1791 176.713 19.0502 176.713 17.7417Z" fill="black"/>
<path d="M192.366 28.8254C190.622 28.8254 189.056 28.5176 187.671 27.9018C186.286 27.2604 185.182 26.4009 184.361 25.3233C183.566 24.2457 183.13 23.0527 183.053 21.7442H188.479C188.582 22.5652 188.98 23.2451 189.672 23.7839C190.391 24.3227 191.276 24.5921 192.328 24.5921C193.354 24.5921 194.149 24.3868 194.714 23.9763C195.304 23.5658 195.599 23.0398 195.599 22.3984C195.599 21.7057 195.24 21.1925 194.521 20.859C193.829 20.4998 192.713 20.115 191.173 19.7044C189.582 19.3196 188.274 18.9219 187.248 18.5114C186.247 18.1009 185.375 17.4723 184.631 16.6256C183.912 15.7789 183.553 14.6372 183.553 13.2004C183.553 12.0202 183.887 10.9426 184.554 9.96768C185.246 8.99272 186.221 8.22301 187.479 7.65856C188.761 7.09411 190.262 6.81189 191.981 6.81189C194.521 6.81189 196.548 7.45331 198.062 8.73615C199.576 9.99333 200.41 11.6995 200.564 13.8547H195.407C195.33 13.008 194.97 12.3409 194.329 11.8535C193.713 11.3403 192.879 11.0837 191.827 11.0837C190.852 11.0837 190.096 11.2633 189.557 11.6225C189.044 11.9817 188.787 12.482 188.787 13.1235C188.787 13.8419 189.146 14.3935 189.865 14.7783C190.583 15.1375 191.699 15.5096 193.213 15.8944C194.752 16.2793 196.022 16.6769 197.023 17.0874C198.024 17.498 198.883 18.1394 199.601 19.0117C200.346 19.8584 200.73 20.9873 200.756 22.3984C200.756 23.6299 200.41 24.7332 199.717 25.7081C199.05 26.6831 198.075 27.4528 196.792 28.0173C195.535 28.5561 194.06 28.8254 192.366 28.8254Z" fill="black"/>
</svg>
